<?xml version="1.0"?>
<svg xmlns="http://www.w3.org/2000/svg" xmlns:xlink="http://www.w3.org/1999/xlink" xmlns:svgjs="http://svgjs.com/svgjs" version="1.1" width="512" height="512" x="0" y="0" viewBox="0 0 24 24" style="enable-background:new 0 0 512 512" xml:space="preserve" class=""><g><path xmlns="http://www.w3.org/2000/svg" d="m14.25 0h-11.5c-1.52 0-2.75 1.23-2.75 2.75v15.5c0 1.52 1.23 2.75 2.75 2.75h6.59c-.54-1.14-.84-2.41-.84-3.75 0-1.15.22-2.25.64-3.26.2-.51.45-1 .74-1.45.65-1.01 1.49-1.87 2.48-2.54.51-.35 1.05-.64 1.63-.86.93-.39 1.95-.61 3.01-.63v-5.76c0-1.52-1.23-2.75-2.75-2.75z" fill="#dadee1" data-original="#eceff1" style="" class=""/><g xmlns="http://www.w3.org/2000/svg" fill="#90a4ae"><path d="m14 9c0 .05 0 .1-.01.14-.58.22-1.12.51-1.63.86h-8.36c-.55 0-1-.45-1-1s.45-1 1-1h9c.55 0 1 .45 1 1z" fill="#90a4ae" data-original="#90a4ae" style="" class=""/><path d="m9.88 12.54c-.29.45-.54.94-.74 1.45-.04.01-.09.01-.14.01h-5c-.55 0-1-.45-1-1s.45-1 1-1h5c.38 0 .72.22.88.54z" fill="#90a4ae" data-original="#90a4ae" style="" class=""/><path d="m8 6h-4c-.552 0-1-.448-1-1s.448-1 1-1h4c.552 0 1 .448 1 1s-.448 1-1 1z" fill="#90a4ae" data-original="#90a4ae" style="" class=""/></g><path xmlns="http://www.w3.org/2000/svg" d="m17.25 24c-3.722 0-6.75-3.028-6.75-6.75s3.028-6.75 6.75-6.75 6.75 3.028 6.75 6.75-3.028 6.75-6.75 6.75z" fill="#2c3e50" data-original="#2196f3" style="" class=""/><path xmlns="http://www.w3.org/2000/svg" d="m17.25 21c-.552 0-1-.448-1-1v-5.5c0-.552.448-1 1-1s1 .448 1 1v5.5c0 .552-.448 1-1 1z" fill="#ffffff" data-original="#ffffff" style="" class=""/><path xmlns="http://www.w3.org/2000/svg" d="m20 18.25h-5.5c-.552 0-1-.448-1-1s.448-1 1-1h5.5c.552 0 1 .448 1 1s-.448 1-1 1z" fill="#ffffff" data-original="#ffffff" style="" class=""/></g></svg>
