<svg id="Capa_1" enable-background="new 0 0 512 512" height="512" viewBox="0 0 512 512" width="512" xmlns="http://www.w3.org/2000/svg" xmlns:xlink="http://www.w3.org/1999/xlink"><linearGradient id="SVGID_1_" gradientUnits="userSpaceOnUse" x1="256" x2="256" y1="512" y2="0"><stop offset="0" stop-color="#ff3786"/><stop offset="1" stop-color="#ffa78c"/></linearGradient><g><path d="m451 117c0-24.813-20.187-45-45-45h-75v-27c0-24.813-20.187-45-45-45h-60c-24.813 0-45 20.187-45 45v27h-75c-24.813 0-45 20.187-45 45 0 19.941 13.041 36.883 31.04 42.772l25.879 301.925c1.18 13.76 7.432 26.481 17.606 35.82s23.382 14.483 37.193 14.483h166.564c13.811 0 27.019-5.144 37.192-14.482 10.175-9.339 16.427-22.061 17.606-35.82l25.879-301.925c18-5.89 31.041-22.832 31.041-42.773zm-240-72c0-8.271 6.729-15 15-15h60c8.271 0 15 6.729 15 15v27h-90zm153.19 414.135c-1.117 13.035-11.825 22.865-24.908 22.865h-166.564c-13.083 0-23.791-9.83-24.908-22.865l-25.469-297.135h267.318zm41.81-327.135h-300c-8.271 0-15-6.729-15-15s6.729-15 15-15h300c8.271 0 15 6.729 15 15s-6.729 15-15 15zm-63.013 85.642-9.001 210c-.355 8.277-7.352 14.699-15.629 14.344-8.277-.355-14.698-7.352-14.344-15.629l9.001-210c.355-8.277 7.352-14.699 15.629-14.344 8.277.356 14.698 7.353 14.344 15.629zm-71.987-.642v210c0 8.284-6.716 15-15 15-8.284 0-15-6.716-15-15v-210c0-8.284 6.716-15 15-15 8.284 0 15 6.716 15 15zm-77.357 224.986c-8.277.355-15.274-6.067-15.629-14.344l-9.001-210c-.355-8.277 6.067-15.274 14.344-15.629 8.277-.355 15.274 6.067 15.629 14.344l9.001 210c.354 8.277-6.067 15.274-14.344 15.629z" fill="url(#SVGID_1_)"/></g></svg>